<?xml version="1.0" encoding="UTF-8"?>
<svg version="1.1" xmlns="http://www.w3.org/2000/svg" width="512" height="512">
<path d="M0 0 C0.6094923 0.30389172 1.2189846 0.60778345 1.84694636 0.92088401 C3.87551846 1.93353146 5.90119003 2.95184574 7.9269104 3.97018433 C9.38573304 4.69987789 10.8447322 5.42921863 12.30389404 6.15823364 C16.25562512 8.13381267 20.20487287 10.11430963 24.15368986 12.09570551 C28.28423298 14.16723498 32.41704719 16.23422344 36.54962158 18.30169678 C44.37087579 22.21543001 52.19008201 26.13323683 60.00855887 30.05251491 C68.91142073 34.51512928 77.81655889 38.97319213 86.72189021 43.43087602 C105.03707034 52.5989142 123.3490828 61.77325699 141.65982056 70.95016479 C141.65982056 85.80016479 141.65982056 100.65016479 141.65982056 115.95016479 C110.16655744 119.96150183 78.67213417 123.96378261 47.17129517 127.91525269 C44.33020726 128.2716837 41.48923102 128.62898603 38.64834595 128.98703003 C34.67847811 129.48729185 30.70823714 129.98452712 26.73794556 130.48141479 C25.55335754 130.63102661 24.36876953 130.78063843 23.14828491 130.93478394 C22.06831238 131.0694104 20.98833984 131.20403687 19.87564087 131.34274292 C18.93537048 131.46073242 17.9951001 131.57872192 17.02633667 131.70028687 C14.65982056 131.95016479 14.65982056 131.95016479 11.65982056 131.95016479 C11.98982056 132.94016479 12.31982056 133.93016479 12.65982056 134.95016479 C13.30034992 135.03170272 13.94087929 135.11324064 14.60081863 135.19724941 C30.18306486 137.18100187 45.76496999 139.16740917 61.3465004 141.15677547 C68.88160152 142.11875167 76.41681544 143.0798275 83.95230103 144.03878784 C90.51988009 144.87457543 97.08724168 145.7120482 103.65434718 146.55154902 C107.13187864 146.99603662 110.60951346 147.43967707 114.08740997 147.88129997 C117.96897907 148.37421325 121.85006167 148.87088853 125.73110962 149.3678894 C126.88557083 149.51390594 128.04003204 149.65992249 129.22947693 149.81036377 C130.28674484 149.9463649 131.34401276 150.08236603 132.43331909 150.2224884 C133.3514249 150.33955611 134.26953072 150.45662382 135.21545792 150.57723904 C137.65982056 150.95016479 137.65982056 150.95016479 141.65982056 151.95016479 C141.65982056 170.43016479 141.65982056 188.91016479 141.65982056 207.95016479 C111.07822146 211.97974021 80.49583521 216.0020564 49.89910889 219.91525269 C47.11965315 220.27082426 44.34043356 220.62816351 41.56140137 220.98703003 C37.66898047 221.48952683 33.77578137 221.98580852 29.88247681 222.48141479 C28.72889679 222.63102661 27.57531677 222.78063843 26.38677979 222.93478394 C25.32067474 223.0694104 24.2545697 223.20403687 23.15615845 223.34274292 C22.23428238 223.46073242 21.31240631 223.57872192 20.3625946 223.70028687 C17.44777866 223.96976858 14.58541951 223.99197467 11.65982056 223.95016479 C11.65982056 225.27016479 11.65982056 226.59016479 11.65982056 227.95016479 C12.19919754 228.00602249 12.73857452 228.06188019 13.29429626 228.11943054 C38.32994576 230.74480911 63.28976637 234.01140906 88.26065063 237.1824646 C95.36286057 238.08383758 102.46546521 238.98209486 109.56800079 239.88089752 C120.26557197 241.23498282 130.96264633 242.59293056 141.65982056 243.95016479 C141.65982056 258.80016479 141.65982056 273.65016479 141.65982056 288.95016479 C121.95568779 298.91505037 102.24344423 308.86329762 82.5156765 318.78129768 C73.35622976 323.38681476 64.20067185 327.99976668 55.05386353 332.63034058 C47.08251527 336.66581377 39.10426116 340.68722702 31.11736071 344.69183719 C26.88762466 346.81322986 22.66170655 348.94154815 18.44398117 351.08673477 C14.47502005 353.10511941 10.49710272 355.10458792 6.51148605 357.08987045 C5.04949282 357.82224412 3.59092182 358.56149536 2.13611603 359.30804443 C0.150109 360.32589949 -1.84669724 361.3183589 -3.84814453 362.30541992 C-5.5211988 363.1488605 -5.5211988 363.1488605 -7.22805214 364.00934029 C-12.9697595 365.74511086 -17.57041921 362.45963724 -22.68035889 359.90032959 C-23.59241089 359.44558762 -23.59241089 359.44558762 -24.52288818 358.98165894 C-26.55293643 357.96828141 -28.58007205 356.9492126 -30.60726929 355.93014526 C-32.08965017 355.1886483 -33.57220735 354.4475037 -35.05492592 353.70668221 C-39.01776183 351.7254896 -42.97817326 349.73949654 -46.93809509 347.75248718 C-50.65707692 345.88729279 -54.37823143 344.02645543 -58.09921265 342.16525269 C-68.9733875 336.72292217 -79.84407152 331.27361896 -90.71517944 325.82516479 C-115.01142944 313.65641479 -139.30767944 301.48766479 -164.34017944 288.95016479 C-164.34017944 217.01016479 -164.34017944 145.07016479 -164.34017944 70.95016479 C-139.38392944 58.36891479 -114.42767944 45.78766479 -88.71517944 32.82516479 C-80.83433472 28.83922241 -72.95348999 24.85328003 -64.83383179 20.74655151 C-55.2124939 15.91329956 -55.2124939 15.91329956 -50.70874023 13.65722656 C-47.55733536 12.07685737 -44.41184007 10.48533939 -41.26953125 8.88696289 C-37.26332523 6.84961404 -33.24794856 4.83158403 -29.22511792 2.82727265 C-27.74902231 2.08773897 -26.27629696 1.34143129 -24.80740047 0.58769965 C-22.82441014 -0.4286162 -20.83064704 -1.41957425 -18.83221436 -2.40509033 C-17.71684484 -2.96738405 -16.60147533 -3.52967777 -15.45230675 -4.1090107 C-9.71059939 -5.84478127 -5.10993967 -2.55930765 0 0 Z " fill="#D8A640" transform="translate(267.3401794433594,76.04983520507813)"/>
<path d="M0 0 C0.6094923 0.30389172 1.2189846 0.60778345 1.84694636 0.92088401 C3.87551846 1.93353146 5.90119003 2.95184574 7.9269104 3.97018433 C9.38573304 4.69987789 10.8447322 5.42921863 12.30389404 6.15823364 C16.25562512 8.13381267 20.20487287 10.11430963 24.15368986 12.09570551 C28.28423298 14.16723498 32.41704719 16.23422344 36.54962158 18.30169678 C44.37087579 22.21543001 52.19008201 26.13323683 60.00855887 30.05251491 C68.91142073 34.51512928 77.81655889 38.97319213 86.72189021 43.43087602 C105.03707034 52.5989142 123.3490828 61.77325699 141.65982056 70.95016479 C141.65982056 85.80016479 141.65982056 100.65016479 141.65982056 115.95016479 C137.85450806 116.43485229 134.04919556 116.91953979 130.12857056 117.41891479 C128.80515656 117.58763596 127.48174255 117.75635712 126.1182251 117.93019104 C119.29222071 118.79975474 112.46558206 119.6638683 105.6378479 120.51974487 C102.70500517 120.88798051 99.7722336 121.25677831 96.83950806 121.62594604 C96.09649822 121.71942636 95.35348839 121.81290668 94.5879631 121.90921974 C84.86037745 123.135499 75.14271254 124.41943414 65.43148804 125.769104 C60.44326111 126.46200548 55.45227449 127.13398315 50.46053696 127.80107689 C47.07375699 128.25515085 43.68934837 128.72024038 40.30801392 129.21334839 C24.11400735 131.55222257 9.68191444 132.21501871 -6.46707153 129.56756592 C-11.01267742 128.8429638 -15.56668866 128.20040919 -20.12582397 127.56759644 C-27.68166992 126.51560297 -35.2348642 125.44721617 -42.78549194 124.35836792 C-43.76625261 124.21697167 -44.74701328 124.07557543 -45.75749397 123.92989445 C-47.74985071 123.64254633 -49.74219523 123.35511351 -51.73452759 123.06759644 C-59.58431716 121.93533642 -67.43485446 120.80827261 -75.28535843 119.68097878 C-77.9354798 119.29999284 -80.58540591 118.917678 -83.23529053 118.53504944 C-103.5943774 115.604876 -123.96796405 112.7927995 -144.34017944 109.95016479 C-144.34017944 156.48016479 -144.34017944 203.01016479 -144.34017944 250.95016479 C-138.40017944 252.43516479 -138.40017944 252.43516479 -132.34017944 253.95016479 C-128.56367982 255.03403416 -124.79925205 256.13596287 -121.03890991 257.27243042 C-119.98032776 257.58991745 -118.92174561 257.90740448 -117.83108521 258.23451233 C-114.3723886 259.27253533 -110.91487538 260.31444174 -107.45736694 261.35641479 C-105.03231957 262.08505023 -102.60719828 262.81343968 -100.18200684 263.54159546 C-94.47048508 265.25710001 -88.7597024 266.97504902 -83.0492841 268.69422197 C-76.58191396 270.64113576 -70.11360906 272.58493466 -63.64521956 274.5284586 C-52.57335794 277.85521709 -41.5021638 281.18418822 -30.43182373 284.51600647 C-29.50986206 284.79346207 -28.58790039 285.07091766 -27.63800049 285.35678101 C-26.7614468 285.62141647 -25.88489311 285.88605194 -24.98177719 286.15870667 C-23.14610774 286.70869786 -21.30816519 287.25113599 -19.46850967 287.78764343 C-18.10429697 288.1874366 -18.10429697 288.1874366 -16.71252441 288.5953064 C-15.89564211 288.83216408 -15.0787598 289.06902176 -14.23712349 289.31305695 C-12.34017944 289.95016479 -12.34017944 289.95016479 -11.34017944 290.95016479 C-11.24574609 293.25070315 -11.22275816 295.55418653 -11.22665405 297.85665894 C-11.22650803 298.57856918 -11.226362 299.30047943 -11.22621155 300.04426575 C-11.22691076 302.44131427 -11.23470349 304.83828602 -11.24252319 307.23532104 C-11.24438735 308.89298968 -11.24581126 310.55065886 -11.24681091 312.20832825 C-11.25063632 316.57970694 -11.26046679 320.95105261 -11.27151489 325.32241821 C-11.28172853 329.7797094 -11.28630843 334.23700591 -11.29135132 338.69430542 C-11.30208904 347.44627373 -11.31916573 356.19821516 -11.34017944 364.95016479 C-27.51969129 357.42955101 -43.46764268 349.45318123 -59.41782379 341.46198273 C-62.75536602 339.79031849 -66.09402792 338.12089667 -69.43258667 336.45126343 C-79.13205137 331.59892963 -88.82976342 326.74309305 -98.52767944 321.88766479 C-120.24580444 311.01828979 -141.96392944 300.14891479 -164.34017944 288.95016479 C-164.34017944 217.01016479 -164.34017944 145.07016479 -164.34017944 70.95016479 C-139.38392944 58.36891479 -114.42767944 45.78766479 -88.71517944 32.82516479 C-80.83433472 28.83922241 -72.95348999 24.85328003 -64.83383179 20.74655151 C-55.2124939 15.91329956 -55.2124939 15.91329956 -50.70874023 13.65722656 C-47.55733536 12.07685737 -44.41184007 10.48533939 -41.26953125 8.88696289 C-37.26332523 6.84961404 -33.24794856 4.83158403 -29.22511792 2.82727265 C-27.74902231 2.08773897 -26.27629696 1.34143129 -24.80740047 0.58769965 C-22.82441014 -0.4286162 -20.83064704 -1.41957425 -18.83221436 -2.40509033 C-17.71684484 -2.96738405 -16.60147533 -3.52967777 -15.45230675 -4.1090107 C-9.71059939 -5.84478127 -5.10993967 -2.55930765 0 0 Z " fill="#866828" transform="translate(267.3401794433594,76.04983520507813)"/>
<path d="M0 0 C5.44641482 0.76105498 10.90375741 1.43152566 16.3614502 2.10604858 C25.4279239 3.2287745 34.49279583 4.36299092 43.55578613 5.51351929 C45.29668707 5.73447533 45.29668707 5.73447533 47.07275772 5.95989513 C49.43860778 6.26022919 51.80445121 6.56061556 54.17028809 6.86105347 C61.27249802 7.76242645 68.37510266 8.66068373 75.47763824 9.55948639 C86.17520942 10.91357169 96.87228378 12.27151943 107.56945801 13.62875366 C107.56945801 28.47875366 107.56945801 43.32875366 107.56945801 58.62875366 C87.76944443 68.54003273 67.96861022 78.44966642 48.16625309 88.35626221 C38.97239345 92.95577382 29.77891123 97.55603687 20.58630371 102.15805054 C12.57713341 106.16760816 4.56726883 110.17577474 -3.44344431 114.18224907 C-7.68782262 116.30509194 -11.93184202 118.42864558 -16.17503166 120.55386353 C-20.16396753 122.55171007 -24.15382478 124.54770384 -28.1444149 126.54224396 C-29.61338601 127.27686775 -31.08201117 128.01218376 -32.5502739 128.74822235 C-34.54586426 129.74848382 -36.5426534 130.74630931 -38.53977966 131.74349976 C-39.65975814 132.30394989 -40.77973661 132.86440002 -41.93365383 133.4418335 C-44.43054199 134.62875366 -44.43054199 134.62875366 -45.43054199 134.62875366 C-45.76054199 110.20875366 -46.09054199 85.78875366 -46.43054199 60.62875366 C-54.13913574 58.31617554 -61.84772949 56.00359741 -69.78991699 53.62094116 C-84.00557709 49.35624313 -84.00557709 49.35624313 -98.22123718 45.0915451 C-98.86780777 44.89757393 -99.51437836 44.70360275 -100.18054199 44.50375366 C-112.58481852 40.7824707 -124.98909505 37.06118774 -137.39337158 33.33990479 C-139.06449697 32.83877261 -139.06449697 32.83877261 -140.76938248 32.32751656 C-142.93255834 31.67829116 -145.09543785 31.02807736 -147.25799179 30.37678337 C-152.3180292 28.85405842 -157.38173038 27.34804227 -162.45800781 25.88027954 C-163.39514744 25.60680758 -164.33228706 25.33333561 -165.29782486 25.05157661 C-167.04896911 24.54132885 -168.80191193 24.03719933 -170.55688095 23.54026604 C-172.5328613 22.96163851 -174.48515944 22.30313849 -176.43054199 21.62875366 C-176.76054199 20.96875366 -177.09054199 20.30875366 -177.43054199 19.62875366 C-149.96619918 15.4757722 -122.4891476 11.41989392 -94.97131348 7.63534546 C-92.56446933 7.30389888 -90.15764963 6.97227467 -87.75085449 6.64047241 C-86.56329056 6.47681686 -85.37572662 6.31316132 -84.1521759 6.14454651 C-77.05108043 5.15750895 -69.96281965 4.10782967 -62.87963867 2.99963379 C-58.34882537 2.29338913 -53.81434002 1.61265641 -49.27929688 0.93417358 C-47.18482874 0.61392434 -45.09211568 0.2818957 -43.00170898 -0.06387329 C-28.11561299 -2.52086726 -14.90426925 -2.10415516 0 0 Z " fill="#D9A741" transform="translate(301.4305419921875,306.3712463378906)"/>
<path d="M0 0 C16.14818377 7.50605177 32.06565183 15.46614917 47.98498321 23.44179463 C51.68906894 25.29700855 55.39432256 27.1498872 59.09944153 29.0030365 C66.08364568 32.49667949 73.06682964 35.99235646 80.04962951 39.48880523 C88.01283692 43.47603901 95.97720926 47.46094325 103.94166982 51.44567311 C120.29572461 59.62789697 136.64819342 67.81328401 153 76 C153 90.52 153 105.04 153 120 C134.6205427 115.40513568 134.6205427 115.40513568 128.40551758 113.50488281 C127.67779963 113.28586555 126.95008167 113.0668483 126.20031166 112.84119415 C123.84729158 112.13206763 121.4959148 111.41765724 119.14453125 110.703125 C117.44924353 110.19109184 115.75385196 109.67940239 114.05836487 109.16802979 C109.565928 107.81207016 105.07488894 106.45153851 100.58415985 105.0899353 C95.9333206 103.68052568 91.28131007 102.27499294 86.62939453 100.86914062 C81.04053274 99.17986306 75.45181004 97.49013083 69.8637085 95.79833984 C59.49814127 92.66032419 49.12988776 89.53156929 38.75646782 86.41960907 C34.43089675 85.12173895 30.10595612 83.82176826 25.78085327 82.52233887 C23.51683927 81.8427472 21.25253797 81.16411193 18.98794556 80.4864502 C15.91557099 79.56675601 12.84436827 78.64325147 9.7734375 77.71875 C8.8828212 77.45330383 7.9922049 77.18785767 7.07460022 76.91436768 C1.11402387 75.11402387 1.11402387 75.11402387 0 74 C-0.09443335 71.69946165 -0.11742128 69.39597827 -0.11352539 67.09350586 C-0.11367142 66.37159561 -0.11381744 65.64968536 -0.1139679 64.90589905 C-0.11326869 62.50885053 -0.10547595 60.11187877 -0.09765625 57.71484375 C-0.0957921 56.05717511 -0.09436818 54.39950593 -0.09336853 52.74183655 C-0.08954312 48.37045786 -0.07971265 43.99911219 -0.06866455 39.62774658 C-0.05845092 35.17045539 -0.05387101 30.71315889 -0.04882812 26.25585938 C-0.0380904 17.50389107 -0.02101371 8.75194964 0 0 Z " fill="#D8A640" transform="translate(256,71)"/>
<path d="M0 0 C5.44641482 0.76105498 10.90375741 1.43152566 16.3614502 2.10604858 C25.4279239 3.2287745 34.49279583 4.36299092 43.55578613 5.51351929 C45.29668707 5.73447533 45.29668707 5.73447533 47.07275772 5.95989513 C49.43860778 6.26022919 51.80445121 6.56061556 54.17028809 6.86105347 C60.20484639 7.62692604 66.23970515 8.39042384 72.27453613 9.15414429 C84.03979894 10.6434068 95.80473568 12.13522799 107.56945801 13.62875366 C104.96786647 16.2303452 102.75850089 16.63639012 99.22619629 17.68148804 C98.24203248 17.97558123 98.24203248 17.97558123 97.23798656 18.27561569 C95.04034277 18.93067457 92.84009825 19.57652274 90.63977051 20.22250366 C89.07874073 20.68593215 87.51788715 21.14995446 85.9571991 21.61453247 C82.61587006 22.60787552 79.27339805 23.59723732 75.92996216 24.58346558 C70.68775372 26.12981119 65.44807254 27.68458912 60.2088623 29.24105835 C54.88031453 30.82367579 49.55162492 32.40580357 44.22203064 33.9848938 C28.23731073 38.72127189 12.26674327 43.50407448 -3.69950104 48.30230713 C-6.83932457 49.24570132 -9.97942325 50.1881786 -13.11950684 51.13070679 C-17.41623232 52.42043102 -21.71288312 53.71040301 -26.00939941 55.00082397 C-26.91958832 55.27108398 -27.82977722 55.54134399 -28.76754761 55.8197937 C-30.54416099 56.35949033 -32.31399112 56.92203762 -34.07620239 57.50704956 C-34.92314667 57.78278809 -35.77009094 58.05852661 -36.6427002 58.34262085 C-37.37519485 58.59018127 -38.10768951 58.8377417 -38.86238098 59.09280396 C-46.4208008 60.67017113 -52.63153161 59.00910431 -59.84362793 56.78646851 C-61.36263954 56.33275375 -61.36263954 56.33275375 -62.91233826 55.86987305 C-66.24975357 54.87020048 -69.58224179 53.85504327 -72.91491699 52.83969116 C-75.25424776 52.13565542 -77.59387295 51.43259728 -79.93377686 50.73046875 C-86.09721682 48.87817808 -92.25660258 47.01274615 -98.41522217 45.14450073 C-104.61719123 43.26554267 -110.82282355 41.39877091 -117.02819824 39.53109741 C-124.03853257 37.42009986 -131.04844075 35.30773454 -138.05596924 33.18743896 C-139.12620457 32.86363565 -140.1964399 32.53983234 -141.2991066 32.20621681 C-143.37947987 31.57610724 -145.45955482 30.9450117 -147.53930283 30.31284142 C-152.48499722 28.81144807 -157.43514152 27.3309166 -162.39990234 25.89370728 C-163.80290022 25.48416022 -163.80290022 25.48416022 -165.23424149 25.06633949 C-166.9906001 24.55480832 -168.7487856 24.04949454 -170.50901413 23.5514431 C-172.5008648 22.96891938 -174.46910368 22.30666422 -176.43054199 21.62875366 C-176.76054199 20.96875366 -177.09054199 20.30875366 -177.43054199 19.62875366 C-149.96619918 15.4757722 -122.4891476 11.41989392 -94.97131348 7.63534546 C-92.56446933 7.30389888 -90.15764963 6.97227467 -87.75085449 6.64047241 C-86.56329056 6.47681686 -85.37572662 6.31316132 -84.1521759 6.14454651 C-77.05108043 5.15750895 -69.96281965 4.10782967 -62.87963867 2.99963379 C-58.34882537 2.29338913 -53.81434002 1.61265641 -49.27929688 0.93417358 C-47.18482874 0.61392434 -45.09211568 0.2818957 -43.00170898 -0.06387329 C-28.11561299 -2.52086726 -14.90426925 -2.10415516 0 0 Z " fill="#F9D690" transform="translate(301.4305419921875,306.3712463378906)"/>
<path d="M0 0 C2.28588515 0.72725636 4.58463655 1.40047648 6.88682175 2.07427597 C9.55836299 2.85834206 12.21976365 3.67083196 14.88031006 4.49139404 C20.93385277 6.356421 26.99058608 8.21084364 33.04882812 10.06054688 C34.11261059 10.38539944 35.17639305 10.710252 36.27241135 11.04494858 C47.82459873 14.56635217 59.40296882 17.99804901 70.984375 21.421875 C73.04824753 22.03289919 75.11209034 22.64402373 77.17590332 23.25524902 C85.5209743 25.72614378 93.86646763 28.19556534 102.21484375 30.65527344 C107.44364063 32.19610191 112.67057445 33.74310725 117.8963089 35.29428864 C119.85888012 35.87555334 121.82214593 36.45447838 123.78612518 37.03096771 C126.48386871 37.82304846 129.17916991 38.62295614 131.87402344 39.42480469 C132.67353424 39.65744019 133.47304504 39.89007568 134.29678345 40.12976074 C139.77195619 41.77195619 139.77195619 41.77195619 142 44 C139.343021 44.33855188 136.68602862 44.67699828 134.02902222 45.01533508 C131.60478552 45.32407133 129.18057173 45.63298751 126.75637817 45.94206238 C119.83104939 46.82428794 112.90511217 47.7012496 105.97802734 48.56958008 C103.04518462 48.93781572 100.11241304 49.30661351 97.1796875 49.67578125 C96.06517275 49.81600173 96.06517275 49.81600173 94.92814255 49.95905495 C85.20055689 51.18533421 75.48289198 52.46926934 65.77166748 53.81893921 C60.78344055 54.51184069 55.79245394 55.18381836 50.8007164 55.85091209 C47.41393643 56.30498606 44.02952781 56.77007559 40.64819336 57.26318359 C24.46110336 59.60105883 10.03441096 60.26701558 -6.10748291 57.62063599 C-10.69175959 56.88970353 -15.28455633 56.24084628 -19.88232422 55.60131836 C-27.5035373 54.53798978 -35.12218241 53.45876768 -42.73828125 52.359375 C-43.72495222 52.2169937 -44.71162319 52.07461241 -45.72819328 51.92791653 C-47.7335024 51.63842011 -49.73879781 51.34882875 -51.74407959 51.05914307 C-59.64386479 49.91818239 -67.54413611 48.78060011 -75.44474792 47.64537811 C-77.38147329 47.36708151 -79.31816988 47.0885845 -81.25483704 46.80988312 C-96.44026154 44.62608304 -111.63615096 42.53058195 -126.84661865 40.5284729 C-127.57517815 40.43176929 -128.30373764 40.33506569 -129.05437469 40.23543167 C-130.99713904 39.97766354 -132.94023771 39.72241868 -134.88336182 39.46737671 C-137.32189268 39.1016902 -139.62985116 38.6638166 -142 38 C-142 37.34 -142 36.68 -142 36 C-141.46975188 35.84153312 -140.93950377 35.68306623 -140.39318752 35.51979733 C-127.37475291 31.62913966 -114.35651466 27.73782559 -101.33847713 23.8458395 C-95.04255434 21.96357623 -88.74657074 20.08151692 -82.45043945 18.19995117 C-76.35535931 16.37845983 -70.26045028 14.5563969 -64.16565132 12.73396492 C-61.85974569 12.04456989 -59.55378216 11.35536848 -57.24775505 10.66637993 C-55.04751489 10.00897193 -52.84747205 9.35090316 -50.64763737 8.69213963 C-48.52546251 8.0583423 -46.40217339 7.42826257 -44.27772427 6.8021307 C-39.05030518 5.25408296 -33.86745093 3.63316722 -28.71170044 1.8598938 C-10.4461304 -4.33163984 -10.4461304 -4.33163984 0 0 Z " fill="#624A1E" transform="translate(267,148)"/>
<path d="M0 0 C0 31.02 0 62.04 0 94 C-18.71857469 92.12814253 -37.36692399 89.58792722 -56 87 C-56 60.6 -56 34.2 -56 7 C-23.68890449 2.38412921 -23.68890449 2.38412921 -13.375 1.25 C-12.27800781 1.12496094 -11.18101562 0.99992188 -10.05078125 0.87109375 C-2.32580701 0 -2.32580701 0 0 0 Z " fill="#876929" transform="translate(256,209)"/>
<path d="M0 0 C0 24.42 0 48.84 0 74 C-12.34363142 72.76563686 -24.67977205 71.44943858 -37 70 C-37 48.22 -37 26.44 -37 4 C-7 0 -7 0 0 0 Z " fill="#886A29" transform="translate(180,219)"/>
</svg>
