<svg width="122" height="27" viewBox="0 0 122 27" fill="none" xmlns="http://www.w3.org/2000/svg">
<path d="M0.448 26.1177V0.701675H6.1V26.1177H0.448ZM4.804 26.1177V21.1497H17.368V26.1177H4.804ZM29.9728 26.5137C27.8848 26.5137 26.0368 26.0697 24.4288 25.1817C22.8448 24.2937 21.5968 23.0697 20.6848 21.5097C19.7968 19.9257 19.3528 18.1257 19.3528 16.1097V0.701675H25.0408V16.4337C25.0408 17.4417 25.2568 18.3177 25.6888 19.0617C26.1208 19.8057 26.7088 20.3817 27.4528 20.7897C28.2208 21.1737 29.0608 21.3657 29.9728 21.3657C30.9328 21.3657 31.7728 21.1737 32.4928 20.7897C33.2128 20.3817 33.7768 19.8177 34.1848 19.0977C34.6168 18.3537 34.8328 17.4777 34.8328 16.4697V0.701675H40.5208V16.1457C40.5208 18.1617 40.0768 19.9497 39.1888 21.5097C38.3008 23.0697 37.0648 24.2937 35.4808 25.1817C33.8968 26.0697 32.0608 26.5137 29.9728 26.5137ZM45.0261 26.1177V0.701675H49.0581L59.0661 16.2897H57.0141L66.9861 0.701675H71.0541V26.1177H65.4021V10.2417L66.4101 10.4937L59.8941 20.6457H56.1501L49.6701 10.4937L50.6421 10.2417V26.1177H45.0261ZM111.967 26.5137C109.879 26.5137 108.079 26.1777 106.567 25.5057C105.079 24.8097 103.711 23.7657 102.463 22.3737L106.135 18.7377C106.951 19.6737 107.851 20.4057 108.835 20.9337C109.843 21.4377 111.007 21.6897 112.327 21.6897C113.527 21.6897 114.451 21.4737 115.099 21.0417C115.771 20.6097 116.107 20.0097 116.107 19.2417C116.107 18.5457 115.891 17.9817 115.459 17.5497C115.027 17.1177 114.451 16.7457 113.731 16.4337C113.035 16.1217 112.255 15.8217 111.391 15.5337C110.551 15.2457 109.711 14.9217 108.871 14.5617C108.031 14.1777 107.251 13.7097 106.531 13.1577C105.835 12.5817 105.271 11.8737 104.839 11.0337C104.407 10.1697 104.191 9.08968 104.191 7.79368C104.191 6.23368 104.563 4.88968 105.307 3.76167C106.075 2.63367 107.131 1.78167 108.475 1.20567C109.819 0.605675 111.367 0.305676 113.119 0.305676C114.895 0.305676 116.515 0.617675 117.979 1.24167C119.467 1.86567 120.691 2.71768 121.651 3.79768L117.979 7.43367C117.211 6.64167 116.431 6.05367 115.639 5.66968C114.871 5.28567 113.995 5.09367 113.011 5.09367C112.027 5.09367 111.247 5.28567 110.671 5.66968C110.095 6.02967 109.807 6.55767 109.807 7.25367C109.807 7.90167 110.023 8.42968 110.455 8.83768C110.887 9.22168 111.451 9.55768 112.147 9.84567C112.867 10.1337 113.647 10.4217 114.487 10.7097C115.351 10.9977 116.203 11.3337 117.043 11.7177C117.883 12.1017 118.651 12.5937 119.347 13.1937C120.067 13.7697 120.643 14.5137 121.075 15.4257C121.507 16.3137 121.723 17.4177 121.723 18.7377C121.723 21.1617 120.859 23.0697 119.131 24.4617C117.403 25.8297 115.015 26.5137 111.967 26.5137Z" fill="#33415B"/>
<path d="M88.0605 26.5497C86.1405 26.5497 84.3645 26.2137 82.7325 25.5417C81.1245 24.8697 79.7085 23.9337 78.4845 22.7337C77.2605 21.5337 76.3125 20.1417 75.6405 18.5577C74.9685 16.9497 74.6325 15.2217 74.6325 13.3737C74.6325 11.5017 74.9685 9.77368 75.6405 8.18967C76.3125 6.60568 77.2485 5.22568 78.4485 4.04967C79.6485 2.84967 81.0525 1.92567 82.6605 1.27767C84.2925 0.605674 86.0685 0.269674 87.9885 0.269674C89.8845 0.269674 91.6365 0.605674 93.2445 1.27767C94.8765 1.92567 96.2925 2.84967 97.4925 4.04967C98.7165 5.22568 99.6645 6.61768 100.336 8.22568C101.008 9.80968 101.344 11.5377 101.344 13.4097C101.344 15.2577 101.008 16.9857 100.336 18.5937C99.6645 20.1777 98.7285 21.5697 97.5285 22.7697C96.3285 23.9457 94.9125 24.8697 93.2805 25.5417C91.6725 26.2137 89.9325 26.5497 88.0605 26.5497ZM87.9885 21.4017C89.5005 21.4017 90.8205 21.0657 91.9485 20.3937C93.1005 19.7217 93.9885 18.7857 94.6125 17.5857C95.2365 16.3617 95.5485 14.9577 95.5485 13.3737C95.5485 12.1737 95.3685 11.0937 95.0085 10.1337C94.6485 9.14968 94.1325 8.30968 93.4605 7.61368C92.7885 6.89368 91.9845 6.35367 91.0485 5.99368C90.1365 5.60967 89.1165 5.41767 87.9885 5.41767C86.4765 5.41767 85.1445 5.75367 83.9925 6.42567C82.8645 7.07367 81.9885 7.99767 81.3645 9.19767C80.7405 10.3737 80.4285 11.7657 80.4285 13.3737C80.4285 14.5737 80.6085 15.6657 80.9685 16.6497C81.3285 17.6337 81.8325 18.4857 82.4805 19.2057C83.1525 19.9017 83.9565 20.4417 84.8925 20.8257C85.8285 21.2097 86.8605 21.4017 87.9885 21.4017Z" fill="#F0BE43"/>
</svg>
