<?xml version="1.0" encoding="UTF-8"?>
<svg version="1.1" xmlns="http://www.w3.org/2000/svg" width="200" height="200">
<path d="M0 0 C66 0 132 0 200 0 C200 66 200 132 200 200 C134 200 68 200 0 200 C0 134 0 68 0 0 Z " fill="#FEFEFE" transform="translate(0,0)"/>
<path d="M0 0 C66 0 132 0 200 0 C200 66 200 132 200 200 C134 200 68 200 0 200 C0 134 0 68 0 0 Z M38 36 C37.23042969 36.69738281 36.46085937 37.39476563 35.66796875 38.11328125 C20.60006689 52.15440956 11.63823334 73.97813495 10.76171875 94.42578125 C10.39912222 110.46534518 12.67292813 125.55465882 20 140 C20.58007812 141.15628906 21.16015625 142.31257812 21.7578125 143.50390625 C29.89008631 158.73012066 42.65808358 171.14708398 58 179 C59.53333984 179.82371094 59.53333984 179.82371094 61.09765625 180.6640625 C80.80718008 190.57988242 105.54624653 192.54833758 126.625 185.84765625 C149.28524362 177.63828209 169.11688658 163.02534859 180 141 C190.56110114 117.53279752 192.51722338 93.11628357 183.875 68.625 C182.95408526 66.40080241 181.99311227 64.19291288 181 62 C180.72510742 61.38930664 180.45021484 60.77861328 180.16699219 60.14941406 C172.32111233 43.26576659 158.60500278 29.38989614 142 21 C141.1028125 20.525625 140.205625 20.05125 139.28125 19.5625 C131.84478085 15.88800936 124.04298284 13.89465185 116 12 C115.23171875 11.8040625 114.4634375 11.608125 113.671875 11.40625 C85.98108803 7.1959549 57.82679346 16.44250085 38 36 Z " fill="#FCFDFD" transform="translate(0,0)"/>
<path d="M0 0 C24.97441861 -0.68184976 24.97441861 -0.68184976 35.671875 -0.83007812 C42.95528301 -0.93148056 50.23503759 -1.0510197 57.515625 -1.2824707 C63.39045656 -1.46805031 69.26137097 -1.56899441 75.13890839 -1.61291313 C77.37365157 -1.64417908 79.60819434 -1.70524854 81.84125519 -1.79741096 C98.8262293 -2.47013012 98.8262293 -2.47013012 104.07215881 1.61275101 C107.73753967 5.55970112 110.33073669 9.97861245 112.78427887 14.7470417 C114.82711868 18.53280538 117.33685629 21.98893032 119.8125 25.5 C120.71145594 26.81777033 121.60885596 28.13660503 122.50390625 29.45703125 C125.09259246 33.20065451 127.93082831 36.70191903 130.953125 40.10546875 C132 42 132 42 131.9453125 44.375 C130.72225952 47.7712463 128.90431855 50.0118862 126.625 52.8125 C122.20996491 58.34433117 118.13567744 64.03645427 114.19580078 69.9152832 C113.3508002 71.16709355 112.48199095 72.40314119 111.59088135 73.62255859 C109.89909185 76.03155348 109.89909185 76.03155348 108.55239868 78.9954071 C106.0687948 83.40360292 103.83619029 87.14014505 98.78460121 88.67164803 C91.90974826 89.72978646 84.95559947 89.37428409 78.02734375 89.171875 C75.77580805 89.14947259 73.52421355 89.13240091 71.27259827 89.12042236 C65.36748624 89.07476507 59.46595865 88.95704169 53.56225586 88.82397461 C46.46767507 88.67918725 39.37189042 88.62445857 32.27625275 88.55453491 C21.51501468 88.43845324 10.76162872 88.20847639 0 88 C0 58.96 0 29.92 0 0 Z " fill="#84A4BA" transform="translate(42,58)"/>
<path d="M0 0 C5.19060374 2.45870703 8.65562216 6.11297277 11.0859375 11.33203125 C13.17315273 17.42420221 12.76186945 23.92771694 10.375 29.875 C7.99028789 34.62739056 4.78565873 37.60717063 0 40 C-5.85475711 40.49328755 -11.18984281 40.85744288 -16.5625 38.3125 C-21.38144481 33.74068057 -24.55389024 29.66749181 -25.37109375 22.94921875 C-25.52062437 15.60462645 -25.03631578 10.55637013 -20 5 C-13.69602669 -0.71755719 -8.33136213 -0.73064321 0 0 Z " fill="#84A4BA" transform="translate(89,80)"/>
<path d="M0 0 C17.28751945 14.10370243 29.82373771 35.37413274 33.11572266 57.60351562 C34.08905195 69.97870238 34.02515289 81.78296714 30.36181641 93.73242188 C30.03181641 93.73242188 29.70181641 93.73242188 29.36181641 93.73242188 C29.43400391 93.12140625 29.50619141 92.51039062 29.58056641 91.88085938 C32.30144107 65.05001196 29.58858325 39.22011727 13.36181641 16.73242188 C5.16963517 6.79076238 -4.14631802 -1.39462212 -15.63818359 -7.26757812 C-16.53666016 -7.74324219 -17.43513672 -8.21890625 -18.36083984 -8.70898438 C-25.79814321 -12.37834612 -33.59638462 -14.37320516 -41.63818359 -16.26757812 C-42.40646484 -16.46351562 -43.17474609 -16.65945312 -43.96630859 -16.86132812 C-67.27220533 -20.40491476 -90.17091427 -14.1072006 -109.63818359 -1.26757812 C-113.18508736 1.53854767 -116.41996141 4.55920979 -119.63818359 7.73242188 C-120.33427734 8.35632813 -121.03037109 8.98023437 -121.74755859 9.62304688 C-136.48446492 23.21755736 -145.02820579 45.36971204 -145.87646484 65.15820312 C-146.23894138 81.19245916 -143.97108694 96.29399204 -136.63818359 110.73242188 C-136.04650391 111.9003125 -135.45482422 113.06820312 -134.84521484 114.27148438 C-129.51493403 124.16283357 -122.39425491 131.60183027 -114.22949219 139.23779297 C-112.32341062 141.02807087 -110.47325418 142.86961723 -108.63818359 144.73242188 C-118.95834113 141.9469813 -128.66067787 128.92412377 -134.20068359 120.23242188 C-140.30066903 109.34151866 -145.27902363 98.03634843 -147.63818359 85.73242188 C-147.81994141 84.80171875 -148.00169922 83.87101562 -148.18896484 82.91210938 C-151.49812591 59.48900412 -144.37950023 37.26910738 -131.63818359 17.73242188 C-128.83936177 14.17796787 -125.81296467 10.95091766 -122.63818359 7.73242188 C-121.94080078 6.96285156 -121.24341797 6.19328125 -120.52490234 5.40039062 C-88.73822059 -28.71072855 -35.07438125 -27.13952123 0 0 Z " fill="#A3BACB" transform="translate(157.63818359375,29.267578125)"/>
<path d="M0 0 C5.95030051 3.44040009 10.72929358 8.91364087 12.75 15.5 C13.56055988 23.8318016 13.85614607 32.45949218 8.75 39.5 C4.28792127 44.33469491 -0.1723268 47.97581481 -6.86328125 48.8359375 C-14.43726339 48.9455465 -19.59750658 47.89263223 -25.2265625 42.6640625 C-31.9629148 35.42872114 -32.72600817 28.86001949 -32.5546875 19.1328125 C-31.88297831 11.12397214 -28.31459772 7.04627638 -22.34765625 1.9453125 C-15.79678148 -2.56832561 -7.3027131 -3.21717965 0 0 Z M-24.5 10 C-28.93119324 16.33027606 -28.98033801 21.86796775 -28.25 29.5 C-26.56985154 35.4950752 -23.21642354 38.93713094 -18.25 42.5 C-13.83318729 44.70840635 -8.05757466 43.92161434 -3.25 43.5 C2.12509225 40.95390367 5.45217811 37.22542598 8 31.875 C9.60785919 24.63963362 9.80060594 17.77864319 6.03125 11.22265625 C3.53530237 7.86682422 0.5057229 5.37786145 -3.25 3.5 C-12.38210608 2.73058222 -18.14285021 2.93650023 -24.5 10 Z " fill="#F7F9FA" transform="translate(92.25,76.5)"/>
<path d="M0 0 C1.32 0.33 2.64 0.66 4 1 C4 15.19 4 29.38 4 44 C11.59 44 19.18 44 27 44 C27 45.32 27 46.64 27 48 C18.09 48 9.18 48 0 48 C0 32.16 0 16.32 0 0 Z " fill="#FCFDFD" transform="translate(115,76)"/>
</svg>
