<?xml version="1.0" encoding="UTF-8"?>
<svg version="1.1" xmlns="http://www.w3.org/2000/svg" width="238" height="211">
<path d="M0 0 C78.54 0 157.08 0 238 0 C238 69.63 238 139.26 238 211 C159.46 211 80.92 211 0 211 C0 141.37 0 71.74 0 0 Z " fill="#6DB33F" transform="translate(0,0)"/>
<path d="M0 0 C22.77 0 45.54 0 69 0 C69 69.63 69 139.26 69 211 C46.56 211 24.12 211 1 211 C4 209 4 209 6.234375 207.84375 C7.06453125 207.4003125 7.8946875 206.956875 8.75 206.5 C9.56984375 206.0771875 10.3896875 205.654375 11.234375 205.21875 C18.70527071 199.22515005 23.04336443 189.64641536 27.5625 181.375 C32.26109005 172.88074058 37.02776086 164.43658453 41.9375 156.0625 C42.50315674 155.09570312 43.06881348 154.12890625 43.65161133 153.1328125 C45.76799995 149.51645913 47.88544887 145.90072767 50.00494385 142.28619385 C52.09051994 138.728692 54.17034795 135.16793164 56.24319458 131.60299683 C57.22573053 129.9166541 58.2142324 128.23379184 59.20288086 126.55102539 C60.10018921 125.00596313 60.10018921 125.00596313 61.015625 123.4296875 C61.54446289 122.52460449 62.07330078 121.61952148 62.61816406 120.68701172 C66.44450165 113.24661039 67.8185105 105.200453 66 97 C63.66024192 90.87054886 60.10022282 85.31415675 56.67675781 79.74365234 C54.38039312 75.98614704 52.1842423 72.17335233 49.97998047 68.36132812 C48.22664641 65.33468655 46.45879622 62.31694118 44.6875 59.30078125 C41.49320422 53.85354934 38.3311254 48.38835225 35.1809082 42.91552734 C33.90330205 40.69696078 32.62322788 38.47981348 31.34057617 36.26416016 C28.55994153 31.46054903 25.79580748 26.6521518 23.11328125 21.79296875 C17.08690568 10.97856019 11.98926378 4.85369193 0 1 C0 0.67 0 0.34 0 0 Z " fill="#FEFEFE" transform="translate(169,0)"/>
<path d="M0 0 C22.44 0 44.88 0 68 0 C65 2 65 2 62.765625 3.15625 C61.52039062 3.82140625 61.52039062 3.82140625 60.25 4.5 C59.43015625 4.9228125 58.6103125 5.345625 57.765625 5.78125 C50.29475058 11.77483287 45.95658042 21.35357428 41.4375 29.625 C36.76175408 38.07904423 32.01634996 46.48126414 27.125 54.8125 C21.75499047 63.96767384 16.45118883 73.15844207 11.1875 82.375 C10.83262512 82.99589508 10.47775024 83.61679016 10.11212158 84.25650024 C4.36294888 94.31780379 0.15139166 102.14709965 3 114 C6.94012756 123.50223043 12.63745777 132.2513954 18 141 C19.30082583 143.20089219 20.58636982 145.40993964 21.86962891 147.62109375 C23.01565416 149.58938594 24.17803425 151.54722018 25.34375 153.50390625 C28.11387353 158.17091515 30.82155186 162.87336014 33.52905273 167.5769043 C34.83597167 169.84673093 36.14535385 172.11514119 37.45727539 174.38208008 C40.31028311 179.31277046 43.14923851 184.24710493 45.90234375 189.234375 C51.66389977 199.57296905 56.75710529 205.78391448 68 210 C68 210.33 68 210.66 68 211 C45.56 211 23.12 211 0 211 C0 141.37 0 71.74 0 0 Z " fill="#FEFEFE" transform="translate(0,0)"/>
<path d="M0 0 C2.5 1.5 2.5 1.5 4 4 C4.45313167 7.17192166 4.68106637 8.98992989 4 12 C2.37963802 13.98625017 0.9225437 15.35337692 -1 17 C-11.57611348 27.30393409 -17.01154171 38.25218396 -17.3125 53.0625 C-17.18471786 66.10905669 -12.90108335 77.26422838 -4.19140625 87.02734375 C6.32962424 97.02341638 19.00763943 100.54685465 33.12109375 100.30859375 C45.2414488 99.3443359 56.40877258 94.15756102 64.8125 85.3125 C74.70555937 73.08886414 77.39889625 59.2619581 76 44 C75.1596333 40.00825817 73.86198143 36.62019918 72 33 C71.55269531 32.12859375 71.10539062 31.2571875 70.64453125 30.359375 C66.94496863 23.73388484 62.31342097 18.87744453 56.625 13.9375 C54.39909176 11.28353249 54.07025845 9.44266385 54 6 C56.13043478 1.43478261 56.13043478 1.43478261 59 0 C63.52687164 -0.80836994 65.70353768 -0.89954539 69.5390625 1.76171875 C72.14363522 4.07908028 74.58671232 6.48479983 77 9 C77.556875 9.53753906 78.11375 10.07507813 78.6875 10.62890625 C90.29091676 22.70528836 94.52165525 38.801754 94.42016602 55.02001953 C93.93630633 72.40495881 87.40697943 87.82381296 75.08984375 100.203125 C67.14180889 107.68544464 57.50898681 113.08709554 47 116 C46.25105469 116.22300781 45.50210938 116.44601563 44.73046875 116.67578125 C28.09464433 120.84182246 11.57907532 117.90033113 -3.3125 109.8125 C-19.10925685 99.83785407 -30.36061094 85.0110074 -34.53979492 66.62524414 C-36.69132646 54.35181249 -36.08910546 40.38990271 -31 29 C-30.525625 27.9275 -30.05125 26.855 -29.5625 25.75 C-24.11812496 14.65185088 -13.74903757 -1.74590953 0 0 Z " fill="#FDFEFC" transform="translate(89,48)"/>
<path d="M0 0 C2.75329021 1.79562405 4.52627461 3.05254922 6 6 C6.11193565 8.00531349 6.15930897 10.01434785 6.17700195 12.02270508 C6.18983719 13.28774368 6.20267242 14.55278229 6.21589661 15.8561554 C6.22406422 17.24394337 6.23150791 18.63173577 6.23828125 20.01953125 C6.24235678 20.71754034 6.2464323 21.41554943 6.25063133 22.13471031 C6.27149222 25.8297941 6.28579334 29.52484076 6.29516602 33.2199707 C6.30622572 37.03333605 6.34061953 40.84611709 6.38033772 44.65927601 C6.40650691 47.59414237 6.4148581 50.52886963 6.41844749 53.46384239 C6.4233134 54.86924876 6.43492771 56.27464891 6.45348549 57.67994118 C6.47787651 59.6495212 6.47449215 61.61938547 6.4699707 63.58911133 C6.47877007 65.26883781 6.47877007 65.26883781 6.48774719 66.98249817 C5.88917678 70.68562011 4.59926952 72.34497712 2 75 C-0.99109988 76.16112464 -3.81374532 76.30669831 -7 76 C-9.92143417 74.23496686 -11.47923817 73.04152365 -13 70 C-13.11193565 67.99468651 -13.15930897 65.98565215 -13.17700195 63.97729492 C-13.18983719 62.71225632 -13.20267242 61.44721771 -13.21589661 60.1438446 C-13.22406422 58.75605663 -13.23150791 57.36826423 -13.23828125 55.98046875 C-13.24235678 55.28245966 -13.2464323 54.58445057 -13.25063133 53.86528969 C-13.27149222 50.1702059 -13.28579334 46.47515924 -13.29516602 42.7800293 C-13.30622572 38.96666395 -13.34061953 35.15388291 -13.38033772 31.34072399 C-13.40650691 28.40585763 -13.4148581 25.47113037 -13.41844749 22.53615761 C-13.4233134 21.13075124 -13.43492771 19.72535109 -13.45348549 18.32005882 C-13.47787651 16.3504788 -13.47449215 14.38061453 -13.4699707 12.41088867 C-13.47583694 11.29107101 -13.48170319 10.17125336 -13.48774719 9.01750183 C-12.88969191 5.31756684 -11.58268294 3.66425976 -9 1 C-5.89951072 -0.55024464 -3.42105782 -0.28992015 0 0 Z " fill="#FEFEFE" transform="translate(122,35)"/>
</svg>
